<?xml version="1.0" ?><!DOCTYPE svg  PUBLIC '-//W3C//DTD SVG 1.1//EN'  'http://www.w3.org/Graphics/SVG/1.1/DTD/svg11.dtd'><svg enable-background="new 0 0 30 30" height="30px" id="Layer_1" version="1.1" viewBox="0 0 30 30" width="30px" xml:space="preserve" xmlns="http://www.w3.org/2000/svg" xmlns:xlink="http://www.w3.org/1999/xlink"><g><path clip-rule="evenodd" d="M30.015,28.667H0V0h30.015V28.667 M2.884,25.783h24.244V2.886   H2.884" fill="#EA4C3A" fill-rule="evenodd"/><path d="M15.401,4.408   c0.421,0.183,0.327,0.46,0.188,1.762c-0.143,1.349-0.618,3.806-1.535,6.218c-0.918,2.415-2.28,4.785-3.467,6.542   c-1.185,1.755-2.201,2.896-2.974,3.554c-0.777,0.658-1.314,0.833-1.665,0.893c-0.348,0.06-0.506,0-0.6-0.175   s-0.127-0.47-0.046-0.819c0.079-0.353,0.268-0.763,0.804-1.287c0.541-0.527,1.426-1.17,2.661-1.772   c1.235-0.599,2.816-1.156,4.115-1.535c1.299-0.381,2.311-0.585,3.197-0.745c0.888-0.161,1.647-0.278,2.39-0.336   c0.745-0.06,1.474-0.06,2.186,0c0.712,0.058,1.409,0.175,2.011,0.319c0.601,0.147,1.108,0.323,1.551,0.602   c0.442,0.277,0.823,0.658,1.012,1.082c0.192,0.425,0.192,0.893,0.033,1.229c-0.158,0.336-0.476,0.542-0.839,0.657   c-0.363,0.117-0.775,0.146-1.266,0c-0.491-0.146-1.063-0.467-1.663-0.893c-0.6-0.423-1.234-0.948-2.057-1.768   c-0.823-0.82-1.837-1.934-2.691-3.015c-0.854-1.083-1.553-2.136-2.028-3.028c-0.473-0.893-0.727-1.624-0.933-2.357   c-0.206-0.731-0.364-1.462-0.427-2.12c-0.063-0.66-0.033-1.245,0.031-1.71c0.063-0.47,0.16-0.82,0.317-1.054   c0.158-0.235,0.381-0.352,0.539-0.41c0.158-0.06,0.254-0.06,0.348-0.073c0.094-0.014,0.188-0.044,0.333,0   C15.064,4.209,15.248,4.321,15.401,4.408z" fill="none" stroke="#EA4C3A" stroke-linejoin="round" stroke-miterlimit="10" stroke-width="1.57"/></g></svg>