<?xml version="1.0" ?><!DOCTYPE svg  PUBLIC '-//W3C//DTD SVG 1.1//EN'  'http://www.w3.org/Graphics/SVG/1.1/DTD/svg11.dtd'><svg enable-background="new 0 0 30 30" height="30px" id="Layer_1" version="1.1" viewBox="0 0 30 30" width="30px" xml:space="preserve" xmlns="http://www.w3.org/2000/svg" xmlns:xlink="http://www.w3.org/1999/xlink"><g><path d="M28.515,7.541L23.09,1.25l-1.073-1.247H9.2c-1.72,0-3.112,1.393-3.112,3.115v3.959h1.93L8.017,3.876   c0.002-0.968,0.78-1.751,1.746-1.751l10.962-0.01v5.193c0.001,1.934,1.564,3.5,3.499,3.5h3.795l-0.187,14.98   c-0.003,0.965-0.784,1.742-1.747,1.749l-16.46-0.008c-0.881,0-1.59-0.864-1.594-1.929v-1.269H6.097v1.891   c0,1.901,1.273,3.445,2.837,3.445l17.712-0.005c1.721,0,3.116-1.4,3.116-3.117V8.99L28.515,7.541" fill="#434440"/><path d="M20.088,25.297H0V6.111h20.088V25.297 M1.93,23.365h16.225V8.043H1.93" fill="#DD5B26"/><path d="M11.587,14.763c0-0.359-0.109-0.646-0.33-0.86c-0.222-0.215-0.598-0.322-1.129-0.322H9.243v2.396h0.879   c0.572,0,0.962-0.119,1.175-0.354C11.491,15.412,11.587,15.124,11.587,14.763 M13.932,14.737c0,0.792-0.198,1.445-0.596,1.964   c-0.517,0.669-1.373,1.005-2.571,1.005H9.243v3.061H6.899v-8.915h3.824c1.088,0,1.914,0.301,2.478,0.904   C13.688,13.273,13.932,13.934,13.932,14.737z" fill="#DD5B26"/></g></svg>