<?xml version="1.0" ?><!DOCTYPE svg  PUBLIC '-//W3C//DTD SVG 1.1//EN'  'http://www.w3.org/Graphics/SVG/1.1/DTD/svg11.dtd'><svg enable-background="new 0 0 30 30" height="30px" id="Layer_1" version="1.1" viewBox="0 0 30 30" width="30px" xml:space="preserve" xmlns="http://www.w3.org/2000/svg" xmlns:xlink="http://www.w3.org/1999/xlink"><g><path d="M28.65,7.575l-5.449-6.322l-1.079-1.252H9.246c-1.73,0-3.13,1.4-3.13,3.13v3.979h1.939L8.054,3.893   C8.058,2.92,8.839,2.133,9.81,2.133l11.017-0.01v5.218c0,1.943,1.569,3.517,3.513,3.517h3.814l-0.188,15.051   c-0.003,0.971-0.787,1.752-1.755,1.757L9.671,27.657c-0.885,0-1.597-0.866-1.603-1.938v-1.273H6.126v1.899   c0,1.909,1.279,3.462,2.85,3.462l17.798-0.005c1.729,0,3.131-1.407,3.131-3.134V9.032L28.65,7.575" fill="#434440"/><path d="M20.185,25.417H0V6.139h20.185V25.417 M1.938,23.476h16.306V8.08H1.938" fill="#6B533B"/><polyline fill="#6B533B" points="3.077,10.931 16.986,10.931 16.986,12.918 3.077,12.918 3.077,10.931  "/><polyline fill="#6B533B" points="3.078,14.906 16.988,14.906 16.988,16.893 3.078,16.893 3.078,14.906  "/><polyline fill="#6B533B" points="3.078,18.88 11.026,18.88 11.026,20.868 3.078,20.868 3.078,18.88  "/></g></svg>