<?xml version="1.0" ?><!DOCTYPE svg  PUBLIC '-//W3C//DTD SVG 1.1//EN'  'http://www.w3.org/Graphics/SVG/1.1/DTD/svg11.dtd'><svg enable-background="new 0 0 30 30" height="30px" id="Layer_1" version="1.1" viewBox="0 0 30 30" width="30px" xml:space="preserve" xmlns="http://www.w3.org/2000/svg" xmlns:xlink="http://www.w3.org/1999/xlink"><g><path d="M28.692,7.584l-5.459-6.33L22.154,0H9.257C7.526,0,6.125,1.402,6.125,3.134v3.984h1.942L8.066,3.897   c0.002-0.974,0.785-1.762,1.757-1.762l11.03-0.01V7.35c0.001,1.946,1.574,3.522,3.521,3.522h3.818l-0.188,15.074   c-0.002,0.97-0.788,1.752-1.758,1.759L9.685,27.698c-0.886,0-1.6-0.871-1.604-1.942v-1.274H6.135v1.901   c0,1.914,1.281,3.467,2.854,3.467l17.824-0.006c1.73,0,3.135-1.409,3.135-3.135V9.043L28.692,7.584" fill="#434440"/><path d="M20.213,25.451H0V6.147h20.213V25.451 M1.942,23.509h16.326V8.09H1.942" fill="#2372BA"/><polyline fill="#2372BA" points="17.052,11.922 14.098,20.895 11.646,20.895 9.958,15.694 8.188,20.895 5.744,20.895 2.985,11.922    5.498,11.922 7.105,17.721 9.063,11.922 10.974,11.922 12.796,17.721 14.543,11.922 17.052,11.922  "/></g></svg>