<?xml version="1.0" ?><!DOCTYPE svg  PUBLIC '-//W3C//DTD SVG 1.1//EN'  'http://www.w3.org/Graphics/SVG/1.1/DTD/svg11.dtd'><svg enable-background="new 0 0 30 30" height="30px" id="Layer_1" version="1.1" viewBox="0 0 30 30" width="30px" xml:space="preserve" xmlns="http://www.w3.org/2000/svg" xmlns:xlink="http://www.w3.org/1999/xlink"><g><polyline fill="#5B2D8D" opacity="0.898" points="2.954,20.331 5.867,18.145 7.352,19.229 13.236,14.875 15.422,16.5    16.905,15.417 16.905,20.331 2.954,20.331  "/><path d="M5.547,10.939c1.085,0,1.967,0.822,1.967,1.833c0,1.014-0.882,1.833-1.967,1.833   c-1.088,0-1.968-0.819-1.968-1.833C3.579,11.761,4.459,10.939,5.547,10.939" fill="#5B2D8D" opacity="0.898"/><path d="M28.676,7.58l-5.454-6.327L22.14,0H9.253C7.522,0,6.121,1.401,6.121,3.132v3.981h1.941L8.061,3.895   c0.004-0.974,0.786-1.761,1.757-1.761l11.024-0.01v5.222c0.002,1.945,1.572,3.52,3.518,3.52h3.816L27.99,25.931   c-0.006,0.969-0.788,1.751-1.759,1.759L9.679,27.682c-0.886,0-1.598-0.87-1.604-1.939v-1.277H6.131v1.901   c0,1.914,1.28,3.465,2.853,3.465l17.812-0.005c1.732,0,3.134-1.406,3.134-3.134V9.038L28.676,7.58" fill="#434440"/><path d="M20.201,25.437H0V6.143h20.201V25.437 M1.94,23.494h16.319V8.085H1.94" fill="#5B2D8D"/></g></svg>